<svg width="584" height="264" xmlns="http://www.w3.org/2000/svg" xmlns:xlink="http://www.w3.org/1999/xlink" overflow="hidden"><g transform="translate(-338 -253)"><path d="M738.5 364.382C738.5 363.343 739.343 362.5 740.382 362.5L841.618 362.5C842.657 362.5 843.5 363.343 843.5 364.382L843.5 410.618C843.5 411.657 842.657 412.5 841.618 412.5L740.382 412.5C739.343 412.5 738.5 411.657 738.5 410.618Z" stroke="#1680AA" stroke-width="1.33333" stroke-miterlimit="8" fill="#C2E8F7" fill-rule="evenodd"/><text font-family="Times New Roman,Times New Roman_MSFontService,sans-serif" font-weight="700" font-size="13" transform="translate(750.39 392)">Discriminator</text><path d="M452.5 416.382C452.5 415.343 453.343 414.5 454.382 414.5L553.618 414.5C554.657 414.5 555.5 415.343 555.5 416.382L555.5 462.618C555.5 463.657 554.657 464.5 553.618 464.5L454.382 464.5C453.343 464.5 452.5 463.657 452.5 462.618Z" stroke="#940E11" stroke-width="1.33333" stroke-miterlimit="8" fill="#FCE0E1" fill-rule="evenodd"/><text font-family="Times New Roman,Times New Roman_MSFontService,sans-serif" font-weight="700" font-size="13" transform="translate(473.809 444)">Generator</text><path d="M599.5 314.382C599.5 313.343 600.343 312.5 601.382 312.5L700.618 312.5C701.657 312.5 702.5 313.343 702.5 314.382L702.5 360.618C702.5 361.657 701.657 362.5 700.618 362.5L601.382 362.5C600.343 362.5 599.5 361.657 599.5 360.618Z" stroke="#476154" stroke-width="1.33333" stroke-miterlimit="8" fill="#E8EEEB" fill-rule="evenodd"/><text font-family="Times New Roman,Times New Roman_MSFontService,sans-serif" font-weight="700" font-size="13" transform="translate(629.643 342)">Sample</text><path d="M452.5 313.42C452.5 312.36 453.36 311.5 454.42 311.5L553.58 311.5C554.641 311.5 555.5 312.36 555.5 313.42L555.5 360.58C555.5 361.641 554.641 362.5 553.58 362.5L454.42 362.5C453.36 362.5 452.5 361.641 452.5 360.58Z" stroke="#418B4A" stroke-width="1.33333" stroke-miterlimit="8" fill="#CCE7CF" fill-rule="evenodd"/><text font-family="Times New Roman,Times New Roman_MSFontService,sans-serif" font-weight="700" font-size="13" transform="translate(468.388 342)">Real Images</text><path d="M919.882 254.5C920.775 254.5 921.5 255.225 921.5 256.119L921.5 377.882C921.5 378.775 920.775 379.5 919.882 379.5L880.119 379.5C879.225 379.5 878.5 378.775 878.5 377.882L878.5 256.119C878.5 255.225 879.225 254.5 880.119 254.5Z" stroke="#476154" stroke-width="1.33333" stroke-miterlimit="8" fill="#E8EEEB" fill-rule="evenodd"/><text font-family="Times New Roman,Times New Roman_MSFontService,sans-serif" font-weight="700" font-size="13" transform="matrix(6.12323e-17 1 -1 6.12323e-17 902.569 277)">Discriminator</text><text font-family="Times New Roman,Times New Roman_MSFontService,sans-serif" font-weight="700" font-size="13" transform="matrix(6.12323e-17 1 -1 6.12323e-17 886.569 304)">Los</text><text font-family="Times New Roman,Times New Roman_MSFontService,sans-serif" font-weight="700" font-size="13" transform="matrix(6.12323e-17 1 -1 6.12323e-17 886.569 325)">s</text><path d="M389.5 438.833 445.098 438.833 445.098 440.167 389.5 440.167ZM443.764 435.5 451.764 439.5 443.764 443.5Z"/><path d="M599.5 416.382C599.5 415.343 600.343 414.5 601.382 414.5L700.618 414.5C701.657 414.5 702.5 415.343 702.5 416.382L702.5 462.618C702.5 463.657 701.657 464.5 700.618 464.5L601.382 464.5C600.343 464.5 599.5 463.657 599.5 462.618Z" stroke="#476154" stroke-width="1.33333" stroke-miterlimit="8" fill="#E8EEEB" fill-rule="evenodd"/><text font-family="Times New Roman,Times New Roman_MSFontService,sans-serif" font-weight="700" font-size="13" transform="translate(629.643 444)">Sample</text><path d="M341.382 491.5C340.343 491.5 339.5 490.657 339.5 489.618L339.5 389.382C339.5 388.343 340.343 387.5 341.382 387.5L387.618 387.5C388.657 387.5 389.5 388.343 389.5 389.382L389.5 489.618C389.5 490.657 388.657 491.5 387.618 491.5Z" stroke="#476154" stroke-width="1.33333" stroke-miterlimit="8" fill="#E8EEEB" fill-rule="evenodd"/><text font-family="Times New Roman,Times New Roman_MSFontService,sans-serif" font-weight="700" font-size="13" transform="matrix(-1.83697e-16 -1 1 -1.83697e-16 361.192 463)">Random</text><text font-family="Times New Roman,Times New Roman_MSFontService,sans-serif" font-weight="700" font-size="13" transform="matrix(-1.83697e-16 -1 1 -1.83697e-16 377.192 454)">Noise</text><path d="M3.21062e-06-0.666667 36.9331-0.666489 36.9331 0.666845-3.21062e-06 0.666667ZM35.5998-3.99983 43.5998 0.000209974 35.5998 4.00017Z" transform="matrix(1 0 0 -1 555.5 439.5)"/><path d="M555.504 336.833 592.612 337.078 592.604 338.411 555.496 338.167ZM591.301 333.736 599.274 337.788 591.248 341.736Z"/><path d="M703.042 337.112 735.136 381.954 734.052 382.73 701.958 337.888ZM737.071 378.93 738.474 387.763 730.566 383.586Z"/><path d="M0.547362-0.380577 32.716 45.8856 31.6212 46.6468-0.547362 0.380577ZM34.6916 42.888 35.9744 51.7398 28.1233 47.455Z" transform="matrix(1 0 0 -1 702.5 439.24)"/><path d="M919.882 391.5C920.776 391.5 921.5 392.225 921.5 393.118L921.5 513.882C921.5 514.775 920.776 515.5 919.882 515.5L880.119 515.5C879.225 515.5 878.5 514.775 878.5 513.882L878.5 393.118C878.5 392.225 879.225 391.5 880.119 391.5Z" stroke="#476154" stroke-width="1.33333" stroke-miterlimit="8" fill="#E8EEEB" fill-rule="evenodd"/><text font-family="Times New Roman,Times New Roman_MSFontService,sans-serif" font-weight="700" font-size="13" transform="matrix(6.12323e-17 1 -1 6.12323e-17 902.569 423)">Generator</text><text font-family="Times New Roman,Times New Roman_MSFontService,sans-serif" font-weight="700" font-size="13" transform="matrix(6.12323e-17 1 -1 6.12323e-17 886.569 440)">Los</text><text font-family="Times New Roman,Times New Roman_MSFontService,sans-serif" font-weight="700" font-size="13" transform="matrix(6.12323e-17 1 -1 6.12323e-17 886.569 461)">s</text><path d="M0.593318-0.304004 33.5275 63.9727 32.3408 64.5807-0.593318 0.304004ZM35.886 61.266 35.9742 70.2099 28.7662 64.9141Z" transform="matrix(1 0 0 -1 843.5 387.71)"/><path d="M844.086 387.181 876.872 447.393 875.701 448.031 842.915 387.819ZM879.162 444.628 879.474 453.567 872.136 448.454Z"/></g></svg>